<?xml version="1.0" encoding="UTF-8" standalone="no"?>
<!-- Created with Inkscape (http://www.inkscape.org/) -->

<svg
   xmlns:dc="http://purl.org/dc/elements/1.1/"
   xmlns:cc="http://creativecommons.org/ns#"
   xmlns:rdf="http://www.w3.org/1999/02/22-rdf-syntax-ns#"
   xmlns:svg="http://www.w3.org/2000/svg"
   xmlns="http://www.w3.org/2000/svg"
   version="1.1"
   width="164.57143"
   height="118.91868"
   id="svg2">
  <defs
     id="defs4">
    <marker
       refX="0"
       refY="0"
       orient="auto"
       id="Arrow2Mstart"
       style="overflow:visible">
      <path
         d="M 8.7185878,4.0337352 -2.2072895,0.01601326 8.7185884,-4.0017078 c -1.7454984,2.3720609 -1.7354408,5.6174519 -6e-7,8.035443 z"
         transform="scale(0.6,0.6)"
         id="path3863"
         style="font-size:12px;fill-rule:evenodd;stroke-width:0.625;stroke-linejoin:round" />
    </marker>
    <marker
       refX="0"
       refY="0"
       orient="auto"
       id="Arrow2Mend"
       style="overflow:visible">
      <path
         d="M 8.7185878,4.0337352 -2.2072895,0.01601326 8.7185884,-4.0017078 c -1.7454984,2.3720609 -1.7354408,5.6174519 -6e-7,8.035443 z"
         transform="scale(-0.6,-0.6)"
         id="path3866"
         style="font-size:12px;fill-rule:evenodd;stroke-width:0.625;stroke-linejoin:round" />
    </marker>
  </defs>
  <metadata
     id="metadata7">
    <rdf:RDF>
      <cc:Work
         rdf:about="">
        <dc:format>image/svg+xml</dc:format>
        <dc:type
           rdf:resource="http://purl.org/dc/dcmitype/StillImage" />
        <dc:title></dc:title>
      </cc:Work>
    </rdf:RDF>
  </metadata>
  <g
     transform="translate(-288.07143,-66.086366)"
     id="layer1">
    <g
       transform="translate(14.126592,-54.347249)"
       id="g4486">
      <path
         d="m 347.14286,150.21933 a 29.285715,29.285715 0 1 1 -58.57143,0 29.285715,29.285715 0 1 1 58.57143,0 z"
         id="path4488"
         style="opacity:0.5;fill:none;stroke:#0000ff;stroke-width:1;stroke-linecap:round;stroke-miterlimit:4;stroke-opacity:1;stroke-dasharray:none;stroke-dashoffset:0" />
      <path
         d="m 347.14286,150.21933 a 29.285715,29.285715 0 1 1 -58.57143,0 29.285715,29.285715 0 1 1 58.57143,0 z"
         transform="matrix(0.12195124,0,0,0.12195124,279.09407,131.8999)"
         id="path4490"
         style="fill:#0000ff;stroke:#000000;stroke-width:4.09999943;stroke-miterlimit:4;stroke-dasharray:none" />
    </g>
    <g
       id="g3788">
      <path
         d="m 347.14286,150.21933 a 29.285715,29.285715 0 1 1 -58.57143,0 29.285715,29.285715 0 1 1 58.57143,0 z"
         id="path2985"
         style="opacity:0.5;fill:none;stroke:#ffff00;stroke-width:1;stroke-linecap:round;stroke-miterlimit:4;stroke-opacity:1;stroke-dasharray:none;stroke-dashoffset:0" />
      <path
         d="m 347.14286,150.21933 a 29.285715,29.285715 0 1 1 -58.57143,0 29.285715,29.285715 0 1 1 58.57143,0 z"
         transform="matrix(0.12195124,0,0,0.12195124,279.09407,131.8999)"
         id="path2987"
         style="fill:#ffff00;stroke:#000000;stroke-width:4.09999943;stroke-miterlimit:4;stroke-dasharray:none" />
    </g>
    <g
       transform="translate(18,-9)"
       id="g3792">
      <path
         d="m 347.14286,150.21933 a 29.285715,29.285715 0 1 1 -58.57143,0 29.285715,29.285715 0 1 1 58.57143,0 z"
         id="path3794"
         style="opacity:0.5;fill:none;stroke:#ff0000;stroke-width:1;stroke-linecap:round;stroke-miterlimit:4;stroke-opacity:1;stroke-dasharray:none;stroke-dashoffset:0" />
      <path
         d="m 347.14286,150.21933 a 29.285715,29.285715 0 1 1 -58.57143,0 29.285715,29.285715 0 1 1 58.57143,0 z"
         transform="matrix(0.12195124,0,0,0.12195124,279.09407,131.8999)"
         id="path3796"
         style="fill:#ff0000;stroke:#000000;stroke-width:4.09999943;stroke-miterlimit:4;stroke-dasharray:none" />
    </g>
    <g
       transform="translate(38,5)"
       id="g3798">
      <path
         d="m 347.14286,150.21933 a 29.285715,29.285715 0 1 1 -58.57143,0 29.285715,29.285715 0 1 1 58.57143,0 z"
         id="path3800"
         style="opacity:0.5;fill:none;stroke:#ff0000;stroke-width:1;stroke-linecap:round;stroke-miterlimit:4;stroke-opacity:1;stroke-dasharray:none;stroke-dashoffset:0" />
      <path
         d="m 347.14286,150.21933 a 29.285715,29.285715 0 1 1 -58.57143,0 29.285715,29.285715 0 1 1 58.57143,0 z"
         transform="matrix(0.12195124,0,0,0.12195124,279.09407,131.8999)"
         id="path3802"
         style="fill:#ff0000;stroke:#000000;stroke-width:4.09999943;stroke-miterlimit:4;stroke-dasharray:none" />
    </g>
    <g
       transform="translate(105,-15)"
       id="g3828">
      <path
         d="m 347.14286,150.21933 a 29.285715,29.285715 0 1 1 -58.57143,0 29.285715,29.285715 0 1 1 58.57143,0 z"
         id="path3830"
         style="opacity:0.5;fill:none;stroke:#ffff00;stroke-width:1;stroke-linecap:round;stroke-miterlimit:4;stroke-opacity:1;stroke-dasharray:none;stroke-dashoffset:0" />
      <path
         d="m 347.14286,150.21933 a 29.285715,29.285715 0 1 1 -58.57143,0 29.285715,29.285715 0 1 1 58.57143,0 z"
         transform="matrix(0.12195124,0,0,0.12195124,279.09407,131.8999)"
         id="path3832"
         style="fill:#ffff00;stroke:#000000;stroke-width:4.09999943;stroke-miterlimit:4;stroke-dasharray:none" />
    </g>
    <g
       transform="translate(60,-4)"
       id="g3804">
      <path
         d="m 347.14286,150.21933 a 29.285715,29.285715 0 1 1 -58.57143,0 29.285715,29.285715 0 1 1 58.57143,0 z"
         id="path3806"
         style="opacity:0.5;fill:none;stroke:#ff0000;stroke-width:1;stroke-linecap:round;stroke-miterlimit:4;stroke-opacity:1;stroke-dasharray:none;stroke-dashoffset:0" />
      <path
         d="m 347.14286,150.21933 a 29.285715,29.285715 0 1 1 -58.57143,0 29.285715,29.285715 0 1 1 58.57143,0 z"
         transform="matrix(0.12195124,0,0,0.12195124,279.09407,131.8999)"
         id="path3808"
         style="fill:#ff0000;stroke:#000000;stroke-width:4.09999943;stroke-miterlimit:4;stroke-dasharray:none" />
    </g>
    <g
       transform="translate(36,-16)"
       id="g3810">
      <path
         d="m 347.14286,150.21933 a 29.285715,29.285715 0 1 1 -58.57143,0 29.285715,29.285715 0 1 1 58.57143,0 z"
         id="path3812"
         style="opacity:0.5;fill:none;stroke:#ff0000;stroke-width:1;stroke-linecap:round;stroke-miterlimit:4;stroke-opacity:1;stroke-dasharray:none;stroke-dashoffset:0" />
      <path
         d="m 347.14286,150.21933 a 29.285715,29.285715 0 1 1 -58.57143,0 29.285715,29.285715 0 1 1 58.57143,0 z"
         transform="matrix(0.12195124,0,0,0.12195124,279.09407,131.8999)"
         id="path3814"
         style="fill:#ff0000;stroke:#000000;stroke-width:4.09999943;stroke-miterlimit:4;stroke-dasharray:none" />
    </g>
    <g
       transform="translate(58,-23)"
       id="g3816">
      <path
         d="m 347.14286,150.21933 a 29.285715,29.285715 0 1 1 -58.57143,0 29.285715,29.285715 0 1 1 58.57143,0 z"
         id="path3818"
         style="opacity:0.5;fill:none;stroke:#ff0000;stroke-width:1;stroke-linecap:round;stroke-miterlimit:4;stroke-opacity:1;stroke-dasharray:none;stroke-dashoffset:0" />
      <path
         d="m 347.14286,150.21933 a 29.285715,29.285715 0 1 1 -58.57143,0 29.285715,29.285715 0 1 1 58.57143,0 z"
         transform="matrix(0.12195124,0,0,0.12195124,279.09407,131.8999)"
         id="path3820"
         style="fill:#ff0000;stroke:#000000;stroke-width:4.09999943;stroke-miterlimit:4;stroke-dasharray:none" />
    </g>
    <g
       transform="translate(81,-15)"
       id="g3822">
      <path
         d="m 347.14286,150.21933 a 29.285715,29.285715 0 1 1 -58.57143,0 29.285715,29.285715 0 1 1 58.57143,0 z"
         id="path3824"
         style="opacity:0.5;fill:none;stroke:#ff0000;stroke-width:1;stroke-linecap:round;stroke-miterlimit:4;stroke-opacity:1;stroke-dasharray:none;stroke-dashoffset:0" />
      <path
         d="m 347.14286,150.21933 a 29.285715,29.285715 0 1 1 -58.57143,0 29.285715,29.285715 0 1 1 58.57143,0 z"
         transform="matrix(0.12195124,0,0,0.12195124,279.09407,131.8999)"
         id="path3826"
         style="fill:#ff0000;stroke:#000000;stroke-width:4.09999943;stroke-miterlimit:4;stroke-dasharray:none" />
    </g>
    <path
       d="m 332.73408,142.69126 -11.39821,5.93332"
       id="path3834"
       style="fill:none;stroke:#000000;stroke-width:1px;stroke-linecap:butt;stroke-linejoin:miter;stroke-opacity:1;marker-end:url(#Arrow2Mend)" />
    <path
       d="m 402.21633,135.35268 16.55082,-0.46841"
       id="path4280"
       style="fill:#b3b3b3;stroke:#000000;stroke-width:1px;stroke-linecap:butt;stroke-linejoin:miter;stroke-opacity:1;marker-end:url(#Arrow2Mend)" />
    <path
       d="m 379.57605,128.17025 15.45784,5.46491"
       id="path4282"
       style="fill:none;stroke:#000000;stroke-width:1px;stroke-linecap:butt;stroke-linejoin:miter;stroke-opacity:1;marker-start:url(#Arrow2Mstart);marker-end:url(#Arrow2Mend)" />
    <path
       d="m 357.71647,132.38602 13.7403,-4.3719"
       id="path4470"
       style="fill:none;stroke:#000000;stroke-width:1px;stroke-linecap:butt;stroke-linejoin:miter;stroke-opacity:1;marker-start:url(#Arrow2Mstart);marker-end:url(#Arrow2Mend)" />
    <path
       d="m 358.02875,135.8211 15.61398,8.43157"
       id="path4472"
       style="fill:none;stroke:#000000;stroke-width:1px;stroke-linecap:butt;stroke-linejoin:miter;stroke-opacity:1;marker-start:url(#Arrow2Mstart);marker-end:url(#Arrow2Mend)" />
    <path
       d="m 382.54271,145.03335 12.49118,-6.87014"
       id="path4474"
       style="fill:none;stroke:#000000;stroke-width:1px;stroke-linecap:butt;stroke-linejoin:miter;stroke-opacity:1;marker-start:url(#Arrow2Mstart);marker-end:url(#Arrow2Mend)" />
    <path
       d="m 339.13582,140.19301 11.3982,-4.99646"
       id="path4476"
       style="fill:none;stroke:#000000;stroke-width:1px;stroke-linecap:butt;stroke-linejoin:miter;stroke-opacity:1;marker-start:url(#Arrow2Mstart);marker-end:url(#Arrow2Mend)" />
    <path
       d="m 360.68312,154.87016 13.42802,-6.55786"
       id="path4478"
       style="fill:none;stroke:#000000;stroke-width:1px;stroke-linecap:butt;stroke-linejoin:miter;stroke-opacity:1;marker-start:url(#Arrow2Mstart);marker-end:url(#Arrow2Mend)" />
    <path
       d="m 339.60424,143.00353 13.42802,9.83683"
       id="path4480"
       style="fill:none;stroke:#000000;stroke-width:1px;stroke-linecap:butt;stroke-linejoin:miter;stroke-opacity:1;marker-start:url(#Arrow2Mstart);marker-end:url(#Arrow2Mend)" />
    <path
       d="m 354.74981,138.78775 1.71753,12.80349"
       id="path4482"
       style="fill:none;stroke:#000000;stroke-width:1px;stroke-linecap:butt;stroke-linejoin:miter;stroke-opacity:1;marker-start:url(#Arrow2Mstart);marker-end:url(#Arrow2Mend)" />
    <path
       d="m 376.29711,130.98076 0.78069,10.77367"
       id="path4484"
       style="fill:none;stroke:#000000;stroke-width:1px;stroke-linecap:butt;stroke-linejoin:miter;stroke-opacity:1;marker-start:url(#Arrow2Mstart);marker-end:url(#Arrow2Mend)" />
    <text
       x="380.98129"
       y="122.54922"
       id="text4514"
       xml:space="preserve"
       style="font-size:15px;font-style:normal;font-variant:normal;font-weight:normal;font-stretch:normal;text-align:center;line-height:125%;letter-spacing:0px;word-spacing:0px;text-anchor:middle;fill:#000000;fill-opacity:1;stroke:none;font-family:Times;-inkscape-font-specification:Times"><tspan
         x="380.98129"
         y="122.54922"
         id="tspan4516">A</tspan></text>
    <text
       x="423.76361"
       y="129.88779"
       id="text4518"
       xml:space="preserve"
       style="font-size:15px;font-style:normal;font-variant:normal;font-weight:normal;font-stretch:normal;text-align:center;line-height:125%;letter-spacing:0px;word-spacing:0px;text-anchor:middle;fill:#000000;fill-opacity:1;stroke:none;font-family:Times;-inkscape-font-specification:Times"><tspan
         x="423.76361"
         y="129.88779"
         id="tspan4520">C</tspan></text>
    <text
       x="317.5885"
       y="165.79996"
       id="text4522"
       xml:space="preserve"
       style="font-size:15px;font-style:normal;font-variant:normal;font-weight:normal;font-stretch:normal;text-align:center;line-height:125%;letter-spacing:0px;word-spacing:0px;text-anchor:middle;fill:#000000;fill-opacity:1;stroke:none;font-family:Times;-inkscape-font-specification:Times"><tspan
         x="317.5885"
         y="165.79996"
         id="tspan4524">B</tspan></text>
    <text
       x="332.57794"
       y="89.603699"
       id="text4526"
       xml:space="preserve"
       style="font-size:15px;font-style:normal;font-variant:normal;font-weight:normal;font-stretch:normal;text-align:center;line-height:125%;letter-spacing:0px;word-spacing:0px;text-anchor:middle;fill:#000000;fill-opacity:1;stroke:none;font-family:Times;-inkscape-font-specification:Times"><tspan
         x="332.57794"
         y="89.603699"
         id="tspan4528">N</tspan></text>
  </g>
</svg>
